
<svg width="400" height="400" viewBox="0 0 400 400" xmlns="http://www.w3.org/2000/svg">
  <path d="M10,10 L50,10 L50,50 L90,50 L90,10 L130,10 L130,90 L170,90 L170,50 L210,50 L210,90 L250,90 L250,130 L290,130 L290,170 L250,170 L250,210 L290,210 L290,250 L250,250 L250,290 L210,290 L210,330 L170,330 L170,370 L130,370 L130,330 L90,330 L90,290 L50,290 L50,330 L10,330" stroke="currentColor" stroke-width="2" fill="none"/>
  <path d="M50,50 L50,90 L90,90 L90,130 L50,130 L50,170 L90,170 L90,210 L130,210 L130,170 L170,170 L170,210 L210,210 L210,170 L250,170" stroke="currentColor" stroke-width="2" fill="none"/>
  <path d="M130,90 L130,130 L170,130 L170,90" stroke="currentColor" stroke-width="2" fill="none"/>
  <path d="M210,130 L290,130" stroke="currentColor" stroke-width="2" fill="none"/>
  <path d="M210,210 L210,250 L170,250 L170,290 L130,290 L130,250 L90,250" stroke="currentColor" stroke-width="2" fill="none"/>
  <circle cx="10" cy="10" r="4" fill="currentColor"/>
  <circle cx="50" cy="50" r="4" fill="currentColor"/>
  <circle cx="90" cy="50" r="4" fill="currentColor"/>
  <circle cx="90" cy="10" r="4" fill="currentColor"/>
  <circle cx="130" cy="10" r="4" fill="currentColor"/>
  <circle cx="130" cy="90" r="4" fill="currentColor"/>
  <circle cx="50" cy="90" r="4" fill="currentColor"/>
  <circle cx="90" cy="90" r="4" fill="currentColor"/>
  <circle cx="50" cy="130" r="4" fill="currentColor"/>
  <circle cx="90" cy="130" r="4" fill="currentColor"/>
  <circle cx="130" cy="130" r="4" fill="currentColor"/>
  <circle cx="170" cy="130" r="4" fill="currentColor"/>
  <circle cx="210" cy="130" r="4" fill="currentColor"/>
  <circle cx="50" cy="170" r="4" fill="currentColor"/>
  <circle cx="90" cy="170" r="4" fill="currentColor"/>
  <circle cx="130" cy="170" r="4" fill="currentColor"/>
  <circle cx="170" cy="170" r="4" fill="currentColor"/>
  <circle cx="210" cy="170" r="4" fill="currentColor"/>
  <circle cx="250" cy="170" r="4" fill="currentColor"/>
  <circle cx="290" cy="170" r="4" fill="currentColor"/>
  <circle cx="90" cy="210" r="4" fill="currentColor"/>
  <circle cx="130" cy="210" r="4" fill="currentColor"/>
  <circle cx="170" cy="210" r="4" fill="currentColor"/>
  <circle cx="210" cy="210" r="4" fill="currentColor"/>
  <circle cx="250" cy="210" r="4" fill="currentColor"/>
  <circle cx="290" cy="210" r="4" fill="currentColor"/>
  <circle cx="90" cy="250" r="4" fill="currentColor"/>
  <circle cx="130" cy="250" r="4" fill="currentColor"/>
  <circle cx="170" cy="250" r="4" fill="currentColor"/>
  <circle cx="210" cy="250" r="4" fill="currentColor"/>
  <circle cx="250" cy="250" r="4" fill="currentColor"/>
  <circle cx="290" cy="250" r="4" fill="currentColor"/>
  <circle cx="90" cy="290" r="4" fill="currentColor"/>
  <circle cx="130" cy="290" r="4" fill="currentColor"/>
  <circle cx="170" cy="290" r="4" fill="currentColor"/>
  <circle cx="210" cy="290" r="4" fill="currentColor"/>
  <circle cx="250" cy="290" r="4" fill="currentColor"/>
  <circle cx="90" cy="330" r="4" fill="currentColor"/>
  <circle cx="130" cy="330" r="4" fill="currentColor"/>
  <circle cx="170" cy="330" r="4" fill="currentColor"/>
  <circle cx="210" cy="330" r="4" fill="currentColor"/>
  <circle cx="50" cy="330" r="4" fill="currentColor"/>
  <circle cx="10" cy="330" r="4" fill="currentColor"/>
  <circle cx="50" cy="290" r="4" fill="currentColor"/>
  <circle cx="170" cy="370" r="4" fill="currentColor"/>
  <circle cx="130" cy="370" r="4" fill="currentColor"/>
  <circle cx="290" cy="130" r="4" fill="currentColor"/>
  <circle cx="250" cy="130" r="4" fill="currentColor"/>
  <circle cx="250" cy="90" r="4" fill="currentColor"/>
  <circle cx="210" cy="90" r="4" fill="currentColor"/>
  <circle cx="170" cy="90" r="4" fill="currentColor"/>
</svg>
